
            <svg xmlns="http://www.w3.org/2000/svg" xmlns:cc="http://creativecommons.org/ns#" xmlns:rdf="http://www.w3.org/1999/02/22-rdf-syntax-ns#" version="1.1" width="694.7343139648438" height="194.52340698242188">
              <defs>
                <style type="text/css">svg {
            background-color: #fff; }
          
          .root text,
          .root tspan {
            font: 12px Arial; }
          
          .root path {
            fill-opacity: 0;
            stroke-width: 2px;
            stroke: #000; }
          
          .root circle {
            fill: #6b6659;
            stroke-width: 2px;
            stroke: #000; }
          
          .anchor text, .any-character text {
            fill: #fff; }
          
          .anchor rect, .any-character rect {
            fill: #6b6659; }
          
          .escape text, .charset-escape text, .literal text {
            fill: #000; }
          
          .escape rect, .charset-escape rect {
            fill: #bada55; }
          
          .literal rect {
            fill: #dae9e5; }
          
          .charset .charset-box {
            fill: #cbcbba; }
          
          .subexp .subexp-label tspan,
          .charset .charset-label tspan,
          .match-fragment .repeat-label tspan {
            font-size: 10px; }
          
          .repeat-label {
            cursor: help; }
          
          .subexp .subexp-label tspan,
          .charset .charset-label tspan {
            dominant-baseline: text-after-edge; }
          
          .subexp .subexp-box {
            stroke: #908c83;
            stroke-dasharray: 6,2;
            stroke-width: 2px;
            fill-opacity: 0; }
          
          .quote {
            fill: #908c83; }
          </style>
              </defs>
              <metadata>
                <rdf:rdf>
                  <cc:license rdf:about="http://creativecommons.org/licenses/by/3.0/">
                    <cc:permits rdf:resource="http://creativecommons.org/ns#Reproduction"></cc:permits>
                    <cc:permits rdf:resource="http://creativecommons.org/ns#Distribution"></cc:permits>
                    <cc:requires rdf:resource="http://creativecommons.org/ns#Notice"></cc:requires>
                    <cc:requires rdf:resource="http://creativecommons.org/ns#Attribution"></cc:requires>
                    <cc:permits rdf:resource="http://creativecommons.org/ns#DerivativeWorks"></cc:permits>
                  </cc:license>
                </rdf:rdf>
              </metadata>
            <desc>Created with Snap</desc><g class="root" transform="matrix(1,0,0,1,15,10)"><g class="regexp match" transform="matrix(1,0,0,1,10,0)"><path d="M70.6875,75.7617H90.6875M332.5156,75.76170349121094H357.5156M568.0311944824218,75.76170349121094H578.0312"></path><g class="match-fragment" transform="matrix(1,0,0,1,0,64.0117)"><g class="label anchor"><rect width="70.6875" height="23.5"></rect><text x="0" y="0" transform="matrix(1,0,0,1,5,16.75)"><tspan>Start of line</tspan></text></g></g><g class="match-fragment" transform="matrix(1,0,0,1,80.6875,0)"><path d="M10,75.76170349121094q-10,0 -10,10v65.76170349121094q0,10 10,10h241.82809448242188q10,0 10,-10v-65.76170349121094q0,-10 -10,-10M261.8280944824219,90.76170349121094l5,-5m-5,5l-5,-5"></path><g class="subexp regexp match" transform="matrix(1,0,0,1,10,0)"><path d="M210.51559448242188,75.76170349121094H220.5156"></path><g class="match-fragment subexp regexp" transform="matrix(1,0,0,1,0,0)"><path d="M10,21.7578q0,-10 10,-10M200.51559448242188,21.7578q0,-10 -10,-10M0,75.76170349121094c10,0 10,-9.496103491210931 20,-9.496103491210931M210.51559448242188,75.76170349121094c-10,0 -10,-9.496103491210931 -20,-9.496103491210931M10,124.77339999999998q0,10 10,10M200.51559448242188,124.77339999999998q0,10 -10,10M0,75.76170349121094q10,0 10,-10V21.7578M210.51559448242188,75.76170349121094q-10,0 -10,-10V21.7578M0,75.76170349121094q10,0 10,10V124.77339999999998M210.51559448242188,75.76170349121094q-10,0 -10,10V124.77339999999998"></path><g transform="matrix(1,0,0,1,20,0)" class="regexp-matches"><path d="M0,11.7578h48.5938M121.92190000000001,11.7578H170.51559448242188M0,66.2656h15M155.2656,66.2656H170.51559448242188M0,134.77339999999998h27.9609M142.55462500000002,134.77339999999998H170.51559448242188"></path><g class="match match-fragment subexp regexp" transform="matrix(1,0,0,1,48.5938,0)"><path d="M31.328125,11.7578H41.3281"></path><g class="match-fragment literal" transform="matrix(1,0,0,1,0,0.0078)"><g class="label"><rect width="31.328125" height="23.5" rx="3" ry="3"></rect><text x="0" y="0" transform="matrix(1,0,0,1,5,16.75)"><tspan class="quote">“</tspan><tspan>24</tspan><tspan class="quote">”</tspan></text></g></g><g class="match-fragment escape" transform="matrix(1,0,0,1,41.3281,0)"><g class="label"><rect width="32" height="23.515625" rx="3" ry="3"></rect><text x="0" y="0" transform="matrix(1,0,0,1,5,16.7578)"><tspan>digit</tspan></text></g></g></g><g class="match" transform="matrix(1,0,0,1,0,28.5156)"><path d="M88.265625,37.75H123.2656"></path><g class="match-fragment" transform="matrix(1,0,0,1,0,0)"><path d="M0,37.75q10,0 10,-10v-18.75q0,-10 10,-10h63.265625q10,0 10,10v18.75q0,10 10,10"></path><g class="charset" transform="matrix(1,0,0,1,15,10)"><rect rx="3" ry="3" class="charset-box" transform="matrix(1,0,0,1,0,11)" width="73.265625" height="33.5"></rect><text x="0" y="0" class="charset-label" transform="matrix(1,0,0,1,0,11)"><tspan>One of:</tspan></text><g transform="matrix(1,0,0,1,5,16)"><g class="charset-range" transform="matrix(1,0,0,1,0,0)"><text x="0" y="0" transform="matrix(1,0,0,1,29.6406,16)">-</text><g class="literal" transform="matrix(1,0,0,1,0,0)"><g class="label"><rect width="24.640625" height="23.5" rx="3" ry="3"></rect><text x="0" y="0" transform="matrix(1,0,0,1,5,16.75)"><tspan class="quote">“</tspan><tspan>0</tspan><tspan class="quote">”</tspan></text></g></g><g class="literal" transform="matrix(1,0,0,1,38.625,0)"><g class="label"><rect width="24.640625" height="23.5" rx="3" ry="3"></rect><text x="0" y="0" transform="matrix(1,0,0,1,5,16.75)"><tspan class="quote">“</tspan><tspan>1</tspan><tspan class="quote">”</tspan></text></g></g></g></g></g></g><g class="match-fragment" transform="matrix(1,0,0,1,113.2656,25.9922)"><path d="M10,11.7578125q-10,0 -10,10v1.7578125q0,10 10,10h32q10,0 10,-10v-1.7578125q0,-10 -10,-10M52,26.7578125l5,-5m-5,5l-5,-5"></path><g class="escape" transform="matrix(1,0,0,1,10,0)"><g class="label"><rect width="32" height="23.515625" rx="3" ry="3"></rect><text x="0" y="0" transform="matrix(1,0,0,1,5,16.7578)"><tspan>digit</tspan></text></g></g><text x="0" y="0" class="repeat-label" transform="matrix(1,0,0,1,0,44.5156)"><tspan>at most once</tspan><title><text x="0" y="0">repeats at most 2 times in total</text></title></text></g></g><g class="match match-fragment subexp regexp" transform="matrix(1,0,0,1,27.9609,107.0234)"><path d="M31.328125,27.75H41.3281"></path><g class="match-fragment literal" transform="matrix(1,0,0,1,0,16)"><g class="label"><rect width="31.328125" height="23.5" rx="3" ry="3"></rect><text x="0" y="0" transform="matrix(1,0,0,1,5,16.75)"><tspan class="quote">“</tspan><tspan>25</tspan><tspan class="quote">”</tspan></text></g></g><g class="match-fragment charset" transform="matrix(1,0,0,1,41.3281,0)"><rect rx="3" ry="3" class="charset-box" transform="matrix(1,0,0,1,0,11)" width="73.265625" height="33.5"></rect><text x="0" y="0" class="charset-label" transform="matrix(1,0,0,1,0,11)"><tspan>One of:</tspan></text><g transform="matrix(1,0,0,1,5,16)"><g class="charset-range" transform="matrix(1,0,0,1,0,0)"><text x="0" y="0" transform="matrix(1,0,0,1,29.6406,16)">-</text><g class="literal" transform="matrix(1,0,0,1,0,0)"><g class="label"><rect width="24.640625" height="23.5" rx="3" ry="3"></rect><text x="0" y="0" transform="matrix(1,0,0,1,5,16.75)"><tspan class="quote">“</tspan><tspan>0</tspan><tspan class="quote">”</tspan></text></g></g><g class="literal" transform="matrix(1,0,0,1,38.625,0)"><g class="label"><rect width="24.640625" height="23.5" rx="3" ry="3"></rect><text x="0" y="0" transform="matrix(1,0,0,1,5,16.75)"><tspan class="quote">“</tspan><tspan>5</tspan><tspan class="quote">”</tspan></text></g></g></g></g></g></g></g></g><g class="match-fragment literal" transform="matrix(1,0,0,1,220.5156,64.0117)"><g class="label"><rect width="21.3125" height="23.5" rx="3" ry="3"></rect><text x="0" y="0" transform="matrix(1,0,0,1,5,16.75)"><tspan class="quote">“</tspan><tspan>.</tspan><tspan class="quote">”</tspan></text></g></g></g><text x="0" y="0" class="repeat-label" transform="matrix(1,0,0,1,234.6093,172.5234)"><tspan>2 times</tspan><title><text x="0" y="0">repeats 3 times in total</text></title></text></g><g class="match-fragment subexp regexp match" transform="matrix(1,0,0,1,357.5156,0)"><path d="M10,21.7578q0,-10 10,-10M200.51559448242188,21.7578q0,-10 -10,-10M0,75.76170349121094c10,0 10,-9.496103491210931 20,-9.496103491210931M210.51559448242188,75.76170349121094c-10,0 -10,-9.496103491210931 -20,-9.496103491210931M10,124.77339999999998q0,10 10,10M200.51559448242188,124.77339999999998q0,10 -10,10M0,75.76170349121094q10,0 10,-10V21.7578M210.51559448242188,75.76170349121094q-10,0 -10,-10V21.7578M0,75.76170349121094q10,0 10,10V124.77339999999998M210.51559448242188,75.76170349121094q-10,0 -10,10V124.77339999999998"></path><g transform="matrix(1,0,0,1,20,0)" class="regexp-matches"><path d="M0,11.7578h48.5938M121.92190000000001,11.7578H170.51559448242188M0,66.2656h15M155.2656,66.2656H170.51559448242188M0,134.77339999999998h27.9609M142.55462500000002,134.77339999999998H170.51559448242188"></path><g class="match match-fragment subexp regexp" transform="matrix(1,0,0,1,48.5938,0)"><path d="M31.328125,11.7578H41.3281"></path><g class="match-fragment literal" transform="matrix(1,0,0,1,0,0.0078)"><g class="label"><rect width="31.328125" height="23.5" rx="3" ry="3"></rect><text x="0" y="0" transform="matrix(1,0,0,1,5,16.75)"><tspan class="quote">“</tspan><tspan>24</tspan><tspan class="quote">”</tspan></text></g></g><g class="match-fragment escape" transform="matrix(1,0,0,1,41.3281,0)"><g class="label"><rect width="32" height="23.515625" rx="3" ry="3"></rect><text x="0" y="0" transform="matrix(1,0,0,1,5,16.7578)"><tspan>digit</tspan></text></g></g></g><g class="match" transform="matrix(1,0,0,1,0,28.5156)"><path d="M88.265625,37.75H123.2656"></path><g class="match-fragment" transform="matrix(1,0,0,1,0,0)"><path d="M0,37.75q10,0 10,-10v-18.75q0,-10 10,-10h63.265625q10,0 10,10v18.75q0,10 10,10"></path><g class="charset" transform="matrix(1,0,0,1,15,10)"><rect rx="3" ry="3" class="charset-box" transform="matrix(1,0,0,1,0,11)" width="73.265625" height="33.5"></rect><text x="0" y="0" class="charset-label" transform="matrix(1,0,0,1,0,11)"><tspan>One of:</tspan></text><g transform="matrix(1,0,0,1,5,16)"><g class="charset-range" transform="matrix(1,0,0,1,0,0)"><text x="0" y="0" transform="matrix(1,0,0,1,29.6406,16)">-</text><g class="literal" transform="matrix(1,0,0,1,0,0)"><g class="label"><rect width="24.640625" height="23.5" rx="3" ry="3"></rect><text x="0" y="0" transform="matrix(1,0,0,1,5,16.75)"><tspan class="quote">“</tspan><tspan>0</tspan><tspan class="quote">”</tspan></text></g></g><g class="literal" transform="matrix(1,0,0,1,38.625,0)"><g class="label"><rect width="24.640625" height="23.5" rx="3" ry="3"></rect><text x="0" y="0" transform="matrix(1,0,0,1,5,16.75)"><tspan class="quote">“</tspan><tspan>1</tspan><tspan class="quote">”</tspan></text></g></g></g></g></g></g><g class="match-fragment" transform="matrix(1,0,0,1,113.2656,25.9922)"><path d="M10,11.7578125q-10,0 -10,10v1.7578125q0,10 10,10h32q10,0 10,-10v-1.7578125q0,-10 -10,-10M52,26.7578125l5,-5m-5,5l-5,-5"></path><g class="escape" transform="matrix(1,0,0,1,10,0)"><g class="label"><rect width="32" height="23.515625" rx="3" ry="3"></rect><text x="0" y="0" transform="matrix(1,0,0,1,5,16.7578)"><tspan>digit</tspan></text></g></g><text x="0" y="0" class="repeat-label" transform="matrix(1,0,0,1,0,44.5156)"><tspan>at most once</tspan><title><text x="0" y="0">repeats at most 2 times in total</text></title></text></g></g><g class="match match-fragment subexp regexp" transform="matrix(1,0,0,1,27.9609,107.0234)"><path d="M31.328125,27.75H41.3281"></path><g class="match-fragment literal" transform="matrix(1,0,0,1,0,16)"><g class="label"><rect width="31.328125" height="23.5" rx="3" ry="3"></rect><text x="0" y="0" transform="matrix(1,0,0,1,5,16.75)"><tspan class="quote">“</tspan><tspan>25</tspan><tspan class="quote">”</tspan></text></g></g><g class="match-fragment charset" transform="matrix(1,0,0,1,41.3281,0)"><rect rx="3" ry="3" class="charset-box" transform="matrix(1,0,0,1,0,11)" width="73.265625" height="33.5"></rect><text x="0" y="0" class="charset-label" transform="matrix(1,0,0,1,0,11)"><tspan>One of:</tspan></text><g transform="matrix(1,0,0,1,5,16)"><g class="charset-range" transform="matrix(1,0,0,1,0,0)"><text x="0" y="0" transform="matrix(1,0,0,1,29.6406,16)">-</text><g class="literal" transform="matrix(1,0,0,1,0,0)"><g class="label"><rect width="24.640625" height="23.5" rx="3" ry="3"></rect><text x="0" y="0" transform="matrix(1,0,0,1,5,16.75)"><tspan class="quote">“</tspan><tspan>0</tspan><tspan class="quote">”</tspan></text></g></g><g class="literal" transform="matrix(1,0,0,1,38.625,0)"><g class="label"><rect width="24.640625" height="23.5" rx="3" ry="3"></rect><text x="0" y="0" transform="matrix(1,0,0,1,5,16.75)"><tspan class="quote">“</tspan><tspan>5</tspan><tspan class="quote">”</tspan></text></g></g></g></g></g></g></g></g><g class="match-fragment" transform="matrix(1,0,0,1,578.0312,64.0117)"><g class="label anchor"><rect width="66.703125" height="23.5"></rect><text x="0" y="0" transform="matrix(1,0,0,1,5,16.75)"><tspan>End of line</tspan></text></g></g></g><path d="M10,75.7617H0M654.734325,75.7617H664.7343139648438"></path><circle cx="0" cy="75.7617" r="5"></circle><circle cx="664.7343139648438" cy="75.7617" r="5"></circle></g></svg>
          